<?xml version="1.0" standalone="no"?>
<!DOCTYPE svg PUBLIC "-//W3C//DTD SVG 20010904//EN"
 "http://www.w3.org/TR/2001/REC-SVG-20010904/DTD/svg10.dtd">
<svg version="1.0" xmlns="http://www.w3.org/2000/svg"
 width="512.000000pt" height="512.000000pt" viewBox="0 0 512.000000 512.000000"
 preserveAspectRatio="xMidYMid meet">
<metadata>
Created by potrace 1.11, written by Peter Selinger 2001-2013
</metadata>
<g transform="translate(0.000000,512.000000) scale(0.100000,-0.100000)"
fill="#000000" stroke="none">
<path d="M3265 5090 c-103 -17 -129 -22 -199 -41 -39 -11 -75 -21 -81 -22 -5
-1 -14 -5 -20 -8 -5 -4 -28 -12 -50 -19 -188 -60 -351 -260 -439 -539 -35
-111 -55 -197 -71 -311 -13 -86 -15 -105 -17 -143 -1 -21 -4 -40 -8 -42 -4 -3
-29 32 -56 78 -107 181 -248 261 -394 225 -64 -16 -170 -85 -170 -110 0 -4 28
-22 63 -39 179 -91 334 -237 474 -449 27 -41 60 -95 73 -120 42 -81 79 -157
100 -205 l20 -48 -45 6 c-99 14 -265 83 -480 199 -299 162 -536 231 -783 228
-218 -3 -322 -24 -467 -97 -310 -155 -545 -507 -609 -913 -14 -89 -16 -399 -3
-470 2 -14 8 -47 12 -75 16 -109 105 -432 144 -520 5 -11 14 -36 21 -55 7 -19
16 -44 21 -55 4 -11 31 -74 59 -140 217 -513 521 -910 871 -1138 160 -103 400
-194 589 -221 111 -16 145 -18 245 -18 126 0 149 4 323 57 187 56 328 54 592
-10 193 -47 230 -52 340 -51 123 2 198 20 298 73 469 247 859 620 1106 1057
52 91 156 316 156 336 0 6 4 18 10 28 26 46 90 299 106 417 3 28 8 58 9 67 27
138 26 784 0 828 -2 3 -6 30 -10 60 -4 30 -9 58 -12 63 -2 4 -6 20 -9 35 -17
98 -107 299 -174 388 -110 146 -263 252 -455 315 -38 13 -72 24 -75 24 -12 3
-117 26 -140 31 -62 14 -307 13 -385 -2 -141 -27 -314 -96 -475 -190 -137 -80
-172 -98 -275 -149 -113 -55 -205 -88 -287 -103 l-46 -9 -41 116 c-49 144 -47
136 -41 138 3 2 39 12 80 23 257 70 375 134 610 328 159 132 232 222 314 386
100 200 169 393 240 669 27 105 34 96 -94 123 -14 2 -38 7 -55 10 -50 10 -357
12 -410 4z"/>
</g>
</svg>
